<svg width="174" height="29" viewBox="0 0 174 29" fill="none" xmlns="http://www.w3.org/2000/svg">
<g id="CineOne21 2">
<path id="Vector" d="M11.6523 1.92467C12.4727 1.92467 13.2109 2.06403 13.8672 2.34274C14.5469 2.59822 15.168 2.88855 15.7305 3.2137C16.3164 3.53887 16.8672 3.8408 17.3828 4.11952C17.8984 4.375 18.4258 4.50274 18.9648 4.50274C19.3867 4.47952 19.8672 4.42145 20.4062 4.32855C20.875 4.23564 21.4141 4.09629 22.0234 3.91048C22.6562 3.70145 23.3594 3.39951 24.1328 3.00468C23.3594 3.74791 22.7266 4.375 22.2344 4.88597C21.7656 5.37371 21.4023 5.78017 21.1445 6.10533C20.8398 6.47694 20.6172 6.76727 20.4766 6.9763C20.3359 7.23178 20.125 7.61501 19.8438 8.12598C19.5859 8.59049 19.2344 9.2176 18.7891 10.0073C18.3438 10.7737 17.7812 11.7841 17.1016 13.0383C17.1016 11.4357 16.9375 10.1931 16.6094 9.3105C16.3047 8.42792 15.9648 7.75436 15.5898 7.28984C15.1445 6.75565 14.6406 6.41888 14.0781 6.27952C13.5625 6.20985 13.0469 6.30275 12.5312 6.55823C12.0156 6.79049 11.5 7.13888 10.9844 7.6034C10.4922 8.06792 10.0117 8.62534 9.54293 9.27566C9.09762 9.90276 8.68746 10.5647 8.31246 11.2615C7.9609 11.9582 7.66793 12.6667 7.43355 13.3866C7.19918 14.0835 7.04684 14.7337 6.97652 15.3376C6.90621 15.8719 6.89449 16.499 6.94137 17.2189C6.98824 17.9156 7.09371 18.6357 7.25777 19.3789C7.42184 20.0989 7.63277 20.8073 7.89058 21.504C8.1484 22.2009 8.4648 22.828 8.8398 23.3854C9.23824 23.9195 9.68355 24.3609 10.1758 24.7092C10.668 25.0344 11.2305 25.1854 11.8633 25.1622C12.5664 25.1157 13.2578 24.9066 13.9375 24.535C14.5234 24.2331 15.1211 23.7686 15.7305 23.1415C16.3398 22.4912 16.8672 21.5738 17.3125 20.3892L22.5156 21.3299C21.0156 23.1415 19.5508 24.5002 18.1211 25.406C16.7148 26.3118 15.4492 26.9505 14.3242 27.3221C13.0117 27.7402 11.7695 27.9376 10.5977 27.9144C9.12105 27.7518 7.73824 27.3105 6.44918 26.5906C5.16012 25.8706 4.04684 24.9996 3.10934 23.9776C2.19527 22.9325 1.48043 21.7944 0.964805 20.5634C0.44918 19.3324 0.226523 18.1247 0.296836 16.9402C0.343711 16.1505 0.507773 15.2331 0.789023 14.1879C1.07027 13.1195 1.44527 12.0279 1.91402 10.913C2.40621 9.79824 2.99215 8.70663 3.67184 7.63824C4.35152 6.56985 5.10152 5.61758 5.92184 4.78145C6.74215 3.9221 7.63277 3.23693 8.59371 2.72596C9.57808 2.19176 10.5977 1.92467 11.6523 1.92467ZM23.3672 12.0977L29.8359 12.1673C29.4609 13.5841 29.1797 14.7918 28.9922 15.7905C28.8281 16.7892 28.7227 17.6254 28.6758 18.299C28.582 19.0654 28.5586 19.7157 28.6055 20.2499C28.6758 20.7376 28.793 21.2602 28.957 21.8177C29.0977 22.2822 29.3086 22.8164 29.5898 23.4202C29.8711 24.0241 30.2461 24.628 30.7148 25.2319C30.4336 25.1389 30.1289 25.0693 29.8008 25.0228C29.4727 24.9763 29.168 24.9415 28.8867 24.9183C28.5586 24.8951 28.2305 24.8951 27.9023 24.9183C27.5742 24.9415 27.2109 24.9763 26.8125 25.0228C26.4844 25.0693 26.0859 25.1273 25.6172 25.197C25.1484 25.2667 24.6562 25.3596 24.1406 25.4758C24.4922 24.4306 24.7617 23.5247 24.9492 22.7583C25.1602 21.9918 25.3125 21.3531 25.4062 20.8422C25.5 20.2383 25.5586 19.7505 25.582 19.3789C25.582 18.9144 25.582 18.3918 25.582 17.8112C25.582 17.2073 25.582 16.6267 25.582 16.0693C25.582 15.5118 25.5703 15.0241 25.5469 14.606C25.5234 14.1647 25.4766 13.886 25.4062 13.7699L25.0547 13.4215C24.9141 13.3053 24.7031 13.1427 24.4219 12.9337C24.1641 12.7014 23.8125 12.4228 23.3672 12.0977ZM25.8633 6.73242C26.3555 6.47694 26.8477 6.40727 27.3398 6.5234C27.8555 6.63952 28.2539 6.86017 28.5352 7.18533C28.8164 7.51049 28.9102 7.89372 28.8164 8.33501C28.7461 8.7763 28.3711 9.20599 27.6914 9.62405C27.0117 10.0189 26.4141 10.1582 25.8984 10.0421C25.3828 9.92599 25.0195 9.68212 24.8086 9.3105C24.5977 8.93889 24.5625 8.50921 24.7031 8.02147C24.8438 7.51049 25.2305 7.08082 25.8633 6.73242ZM33.5703 23.8383C33.7344 23.0719 33.8516 22.3983 33.9219 21.8177C34.0156 21.2138 34.0859 20.7144 34.1328 20.3195C34.1797 19.8551 34.2031 19.4602 34.2031 19.135C34.1797 18.7402 34.1562 18.2757 34.1328 17.7415C34.1328 17.1841 34.1094 16.6383 34.0625 16.104C34.0391 15.5466 34.0039 15.0589 33.957 14.6409C33.9102 14.1995 33.8516 13.886 33.7812 13.7001C33.6875 13.5143 33.5586 13.3169 33.3945 13.1079C33.0664 12.713 32.5859 12.3298 31.9531 11.9582C32.4922 11.8421 32.9492 11.7492 33.3242 11.6796C33.7227 11.5866 34.0508 11.5053 34.3086 11.4357C34.5898 11.3427 34.8359 11.2615 35.0469 11.1918C35.2344 11.1221 35.457 11.0525 35.7148 10.9828C35.9258 10.9363 36.1836 10.8783 36.4883 10.8086C36.793 10.7389 37.1445 10.6576 37.543 10.5647L37.4375 13.735C38.1875 12.8525 38.9492 12.1905 39.7227 11.7492C40.4961 11.3079 41.2227 10.9944 41.9023 10.8086C42.6758 10.5763 43.4375 10.4602 44.1875 10.4602C45.125 10.5066 45.9922 10.6576 46.7891 10.913C47.6094 11.1686 48.3125 11.4705 48.8984 11.8189C49.5078 12.144 50 12.4925 50.375 12.8641C50.75 13.2357 50.9727 13.5608 51.043 13.8396C51.3242 14.7453 51.3945 15.5815 51.2539 16.3479C51.1133 17.0912 50.9258 17.8228 50.6914 18.5428C50.4805 19.2396 50.293 19.9363 50.1289 20.6331C49.9883 21.3299 50.0469 22.0848 50.3047 22.8976C50.3984 23.1066 50.4922 23.3157 50.5859 23.5247C50.6797 23.7105 50.7969 23.8964 50.9375 24.0822C51.0781 24.268 51.2422 24.419 51.4297 24.535C51.1719 24.5118 50.9141 24.5002 50.6562 24.5002C50.3984 24.477 50.1641 24.4538 49.9531 24.4306C49.6953 24.4073 49.4609 24.3841 49.25 24.3609C49.0156 24.3376 48.6992 24.326 48.3008 24.326C47.6211 24.326 46.5664 24.3609 45.1367 24.4306C45.3477 23.9428 45.5117 23.5363 45.6289 23.2112C45.7695 22.8628 45.8867 22.5841 45.9805 22.375C46.0742 22.1195 46.1445 21.9221 46.1914 21.7828C46.4727 21.1092 46.6367 20.3428 46.6836 19.4835C46.7539 18.6241 46.6953 17.7531 46.5078 16.8706C46.4375 16.5686 46.3203 16.2086 46.1562 15.7905C45.9922 15.3724 45.7695 14.966 45.4883 14.5711C45.2305 14.1763 44.9141 13.8396 44.5391 13.5608C44.1875 13.2822 43.7773 13.1195 43.3086 13.0731C42.8398 13.0267 42.3125 13.1427 41.7266 13.4215C41.1641 13.7002 40.5547 14.2112 39.8984 14.9544C39.4062 15.5815 39.0195 16.3479 38.7383 17.2538C38.4805 18.0202 38.3047 18.9841 38.2109 20.1453C38.1172 21.2835 38.2578 22.6189 38.6328 24.1518C38.3047 24.1053 38 24.0822 37.7188 24.0822C37.4375 24.059 37.2031 24.0357 37.0156 24.0125C36.7812 23.9893 36.5703 23.966 36.3828 23.9428C36.1719 23.9428 35.9375 23.9312 35.6797 23.9079C35.4453 23.9079 35.1523 23.9079 34.8008 23.9079C34.4492 23.8848 34.0391 23.8615 33.5703 23.8383ZM63.2148 22.0615C63.8711 22.0615 64.4805 21.9918 65.043 21.8525C65.5117 21.7363 65.957 21.5505 66.3789 21.2951C66.8242 21.0164 67.1172 20.6099 67.2578 20.0757C67.7266 20.1686 68.125 20.2499 68.4531 20.3195C68.7812 20.366 69.0625 20.4125 69.2969 20.459C69.5547 20.5286 69.7773 20.575 69.9648 20.5983C70.1523 20.6448 70.375 20.6912 70.6328 20.7376C70.8672 20.7841 71.1484 20.8422 71.4766 20.9118C71.8281 20.9583 72.2383 21.028 72.707 21.1208C72.3555 21.0745 71.9922 21.1092 71.6172 21.2254C71.2656 21.3415 70.9258 21.4693 70.5977 21.6086C70.2227 21.7712 69.8711 21.9686 69.543 22.2009C69.332 22.3402 69.0859 22.5492 68.8047 22.828C68.5469 23.1066 68.1719 23.3738 67.6797 23.6293C67.1875 23.8848 66.5312 24.1053 65.7109 24.2912C64.9141 24.4538 63.8828 24.5118 62.6172 24.4654C61.0938 24.419 59.8164 24.1518 58.7852 23.6641C57.7539 23.1531 56.9219 22.5376 56.2891 21.8177C55.6562 21.0745 55.1992 20.2732 54.918 19.4138C54.6367 18.5544 54.4844 17.7531 54.4609 17.0099C54.4375 16.2667 54.6602 15.4886 55.1289 14.6757C55.5977 13.8628 56.2539 13.1195 57.0977 12.446C57.9648 11.7724 59.0078 11.2266 60.2266 10.8086C61.4453 10.3673 62.7812 10.1466 64.2344 10.1466C65.0781 10.1466 65.8516 10.2512 66.5547 10.4602C67.2812 10.646 67.9375 10.9014 68.5234 11.2266C69.1328 11.5518 69.6602 11.9234 70.1055 12.3414C70.5508 12.7363 70.9258 13.1427 71.2305 13.5608C71.5352 14.0021 71.793 14.4667 72.0039 14.9544C72.1914 15.3724 72.3438 15.8486 72.4609 16.3828C72.5781 16.9169 72.6133 17.4628 72.5664 18.0202C70.7852 18.0667 69.3438 18.1015 68.2422 18.1247C67.1641 18.1479 66.3203 18.1595 65.7109 18.1595H64.1289H62.9336C62.5117 18.1595 61.9609 18.1712 61.2812 18.1944C60.6016 18.2176 59.7695 18.2525 58.7852 18.299C58.9023 19.228 59.1953 19.9479 59.6641 20.459C60.1562 20.9466 60.6719 21.3182 61.2109 21.5738C61.8203 21.8525 62.4883 22.0151 63.2148 22.0615ZM60.0508 15.7905C60.8008 15.837 61.4219 15.8719 61.9141 15.8951C62.4297 15.9182 62.8516 15.9415 63.1797 15.9647C63.5312 15.9879 63.8125 15.9996 64.0234 15.9996H64.9023C65.4883 15.9996 66.5781 15.9647 68.1719 15.8951C68.1016 14.8731 67.8789 14.0951 67.5039 13.5608C67.1523 13.0267 66.7773 12.6318 66.3789 12.3763C65.9102 12.0976 65.3945 11.935 64.832 11.8886C63.3086 11.9118 62.1719 12.2254 61.4219 12.8292C60.6953 13.4331 60.2383 14.4202 60.0508 15.7905ZM87.1289 1.40209C88.3945 1.44854 89.6719 1.6808 90.9609 2.09886C92.2734 2.4937 93.4805 3.14403 94.582 4.04983C95.6836 4.93242 96.6211 6.0821 97.3945 7.49888C98.168 8.89243 98.6484 10.5995 98.8359 12.6202C99 14.2693 98.7891 15.9066 98.2031 17.5324C97.6406 19.135 96.8555 20.6099 95.8477 21.957C94.8398 23.3041 93.6797 24.4538 92.3672 25.406C91.0547 26.335 89.7422 26.9505 88.4297 27.2525C87.6328 27.4383 86.7539 27.4616 85.793 27.3221C84.8555 27.1596 83.8945 26.8693 82.9102 26.4512C81.9492 26.0099 81 25.4525 80.0625 24.7789C79.1484 24.1053 78.3164 23.3389 77.5664 22.4796C76.8164 21.597 76.1836 20.6448 75.668 19.6228C75.1758 18.6009 74.8711 17.5324 74.7539 16.4176C74.6367 15.4886 74.625 14.4667 74.7188 13.3518C74.8359 12.2137 75.0586 11.0873 75.3867 9.97243C75.7383 8.83437 76.2188 7.74275 76.8281 6.69759C77.4609 5.6292 78.2578 4.70016 79.2188 3.91048C80.1797 3.09757 81.3047 2.47047 82.5938 2.02918C83.9062 1.56467 85.418 1.35563 87.1289 1.40209ZM80.8359 15.5118C80.5078 17.997 80.7422 19.9944 81.5391 21.504C82.3594 23.0138 83.5898 23.9312 85.2305 24.2564C86.0273 24.419 86.7891 24.2564 87.5156 23.7686C88.2656 23.2577 88.9453 22.526 89.5547 21.5738C90.1641 20.6215 90.6914 19.5066 91.1367 18.2293C91.582 16.9518 91.9102 15.6163 92.1211 14.2228C92.332 12.8292 92.3438 11.575 92.1562 10.4602C91.9922 9.32212 91.6992 8.35824 91.2773 7.56856C90.8555 6.75565 90.3398 6.12856 89.7305 5.68727C89.1445 5.24597 88.5352 5.0021 87.9023 4.95564C86.8008 4.88597 85.8398 5.17629 85.0195 5.82662C84.1992 6.45371 83.5078 7.27823 82.9453 8.30017C82.3828 9.32212 81.9258 10.4718 81.5742 11.7492C81.2461 13.0267 81 14.2809 80.8359 15.5118ZM101.727 23.8383C101.891 23.0719 102.008 22.3983 102.078 21.8177C102.172 21.2138 102.242 20.7144 102.289 20.3195C102.336 19.8551 102.359 19.4602 102.359 19.135C102.336 18.7402 102.312 18.2757 102.289 17.7415C102.289 17.1841 102.266 16.6383 102.219 16.104C102.195 15.5466 102.16 15.0589 102.113 14.6409C102.066 14.1995 102.008 13.886 101.938 13.7001C101.844 13.5143 101.715 13.3169 101.551 13.1079C101.223 12.713 100.742 12.3298 100.109 11.9582C100.648 11.8421 101.105 11.7492 101.48 11.6796C101.879 11.5866 102.207 11.5053 102.465 11.4357C102.746 11.3427 102.992 11.2615 103.203 11.1918C103.391 11.1221 103.613 11.0525 103.871 10.9828C104.082 10.9363 104.34 10.8783 104.645 10.8086C104.949 10.7389 105.301 10.6576 105.699 10.5647L105.594 13.735C106.344 12.8525 107.105 12.1905 107.879 11.7492C108.652 11.3079 109.379 10.9944 110.059 10.8086C110.832 10.5763 111.594 10.4602 112.344 10.4602C113.281 10.5066 114.148 10.6576 114.945 10.913C115.766 11.1686 116.469 11.4705 117.055 11.8189C117.664 12.144 118.156 12.4925 118.531 12.8641C118.906 13.2357 119.129 13.5608 119.199 13.8396C119.48 14.7453 119.551 15.5815 119.41 16.3479C119.27 17.0912 119.082 17.8228 118.848 18.5428C118.637 19.2396 118.449 19.9363 118.285 20.6331C118.145 21.3299 118.203 22.0848 118.461 22.8976C118.555 23.1066 118.648 23.3157 118.742 23.5247C118.836 23.7105 118.953 23.8964 119.094 24.0822C119.234 24.268 119.398 24.419 119.586 24.535C119.328 24.5118 119.07 24.5002 118.812 24.5002C118.555 24.477 118.32 24.4538 118.109 24.4306C117.852 24.4073 117.617 24.3841 117.406 24.3609C117.172 24.3376 116.855 24.326 116.457 24.326C115.777 24.326 114.723 24.3609 113.293 24.4306C113.504 23.9428 113.668 23.5363 113.785 23.2112C113.926 22.8628 114.043 22.5841 114.137 22.375C114.23 22.1195 114.301 21.9221 114.348 21.7828C114.629 21.1092 114.793 20.3428 114.84 19.4835C114.91 18.6241 114.852 17.7531 114.664 16.8706C114.594 16.5686 114.477 16.2086 114.312 15.7905C114.148 15.3724 113.926 14.966 113.645 14.5711C113.387 14.1763 113.07 13.8396 112.695 13.5608C112.344 13.2822 111.934 13.1195 111.465 13.0731C110.996 13.0267 110.469 13.1427 109.883 13.4215C109.32 13.7002 108.711 14.2112 108.055 14.9544C107.562 15.5815 107.176 16.3479 106.895 17.2538C106.637 18.0202 106.461 18.9841 106.367 20.1453C106.273 21.2835 106.414 22.6189 106.789 24.1518C106.461 24.1053 106.156 24.0822 105.875 24.0822C105.594 24.059 105.359 24.0357 105.172 24.0125C104.938 23.9893 104.727 23.966 104.539 23.9428C104.328 23.9428 104.094 23.9312 103.836 23.9079C103.602 23.9079 103.309 23.9079 102.957 23.9079C102.605 23.8848 102.195 23.8615 101.727 23.8383ZM131.371 22.0615C132.027 22.0615 132.637 21.9918 133.199 21.8525C133.668 21.7363 134.113 21.5505 134.535 21.2951C134.98 21.0164 135.273 20.6099 135.414 20.0757C135.883 20.1686 136.281 20.2499 136.609 20.3195C136.938 20.366 137.219 20.4125 137.453 20.459C137.711 20.5286 137.934 20.575 138.121 20.5983C138.309 20.6448 138.531 20.6912 138.789 20.7376C139.023 20.7841 139.305 20.8422 139.633 20.9118C139.984 20.9583 140.395 21.028 140.863 21.1208C140.512 21.0745 140.148 21.1092 139.773 21.2254C139.422 21.3415 139.082 21.4693 138.754 21.6086C138.379 21.7712 138.027 21.9686 137.699 22.2009C137.488 22.3402 137.242 22.5492 136.961 22.828C136.703 23.1066 136.328 23.3738 135.836 23.6293C135.344 23.8848 134.688 24.1053 133.867 24.2912C133.07 24.4538 132.039 24.5118 130.773 24.4654C129.25 24.419 127.973 24.1518 126.941 23.6641C125.91 23.1531 125.078 22.5376 124.445 21.8177C123.812 21.0745 123.355 20.2732 123.074 19.4138C122.793 18.5544 122.641 17.7531 122.617 17.0099C122.594 16.2667 122.816 15.4886 123.285 14.6757C123.754 13.8628 124.41 13.1195 125.254 12.446C126.121 11.7724 127.164 11.2266 128.383 10.8086C129.602 10.3673 130.938 10.1466 132.391 10.1466C133.234 10.1466 134.008 10.2512 134.711 10.4602C135.438 10.646 136.094 10.9014 136.68 11.2266C137.289 11.5518 137.816 11.9234 138.262 12.3414C138.707 12.7363 139.082 13.1427 139.387 13.5608C139.691 14.0021 139.949 14.4667 140.16 14.9544C140.348 15.3724 140.5 15.8486 140.617 16.3828C140.734 16.9169 140.77 17.4628 140.723 18.0202C138.941 18.0667 137.5 18.1015 136.398 18.1247C135.32 18.1479 134.477 18.1595 133.867 18.1595H132.285H131.09C130.668 18.1595 130.117 18.1712 129.438 18.1944C128.758 18.2176 127.926 18.2525 126.941 18.299C127.059 19.228 127.352 19.9479 127.82 20.459C128.312 20.9466 128.828 21.3182 129.367 21.5738C129.977 21.8525 130.645 22.0151 131.371 22.0615ZM128.207 15.7905C128.957 15.837 129.578 15.8719 130.07 15.8951C130.586 15.9182 131.008 15.9415 131.336 15.9647C131.688 15.9879 131.969 15.9996 132.18 15.9996H133.059C133.645 15.9996 134.734 15.9647 136.328 15.8951C136.258 14.8731 136.035 14.0951 135.66 13.5608C135.309 13.0267 134.934 12.6318 134.535 12.3763C134.066 12.0976 133.551 11.935 132.988 11.8886C131.465 11.9118 130.328 12.2254 129.578 12.8292C128.852 13.4331 128.395 14.4202 128.207 15.7905ZM143.543 3.10918C143.988 3.43435 144.434 3.67822 144.879 3.8408C145.348 3.98016 145.77 4.07306 146.145 4.11952C146.566 4.18919 146.988 4.20081 147.41 4.15435C147.809 4.10791 148.219 3.96855 148.641 3.73629C149.062 3.50403 149.555 3.26016 150.117 3.00468C150.68 2.74918 151.336 2.52855 152.086 2.34274C152.859 2.1337 153.785 2.02918 154.863 2.02918C155.332 2.02918 155.824 2.12209 156.34 2.3079C156.879 2.4937 157.395 2.73757 157.887 3.03951C158.379 3.31822 158.824 3.63177 159.223 3.98016C159.645 4.32855 159.961 4.67694 160.172 5.02533C160.406 5.37371 160.57 5.94275 160.664 6.73242C160.758 7.49888 160.793 8.33501 160.77 9.24082C160.746 10.1466 160.664 11.0409 160.523 11.9234C160.406 12.806 160.23 13.526 159.996 14.0835C159.715 14.5711 159.176 15.1983 158.379 15.9647C157.699 16.6151 156.68 17.4512 155.32 18.4732C153.961 19.4951 152.133 20.7144 149.836 22.1312C151.195 22.1079 152.332 22.0732 153.246 22.0267C154.184 21.957 154.945 21.8874 155.531 21.8177C156.211 21.7247 156.75 21.6318 157.148 21.5389C157.5 21.3996 157.875 21.2022 158.273 20.9466C158.602 20.7144 158.953 20.4125 159.328 20.0409C159.727 19.6693 160.113 19.1815 160.488 18.5776C160.559 19.8318 160.629 20.8189 160.699 21.5389C160.746 21.957 160.781 22.317 160.805 22.6189C160.828 22.8977 160.852 23.2228 160.875 23.5944C160.898 23.9195 160.91 24.2912 160.91 24.7092C160.934 25.1273 160.969 25.5686 161.016 26.0332C159.844 25.7312 158.777 25.499 157.816 25.3363C156.855 25.1505 156.035 25.0228 155.355 24.9531C154.559 24.8603 153.844 24.8138 153.211 24.8138C152.555 24.837 151.828 24.8951 151.031 24.988C150.328 25.0809 149.484 25.2202 148.5 25.406C147.539 25.5686 146.449 25.8125 145.23 26.1376C145.137 25.8822 145.055 25.6267 144.984 25.3712C144.914 25.0925 144.855 24.8254 144.809 24.5699C144.738 24.2912 144.68 24.0125 144.633 23.7337C144.586 23.4551 144.539 23.188 144.492 22.9325C144.445 22.7002 144.41 22.4564 144.387 22.2009C144.363 21.9454 144.34 21.7015 144.316 21.4693C146.191 20.2848 147.715 19.2164 148.887 18.2641C150.059 17.2886 150.984 16.4641 151.664 15.7905C152.438 15.0008 153.023 14.2809 153.422 13.6305C153.82 12.8409 154.148 11.9698 154.406 11.0176C154.664 10.0653 154.746 9.18276 154.652 8.36985C154.582 7.55694 154.301 6.89501 153.809 6.38404C153.316 5.84984 152.531 5.61758 151.453 5.68727C150.75 5.73371 150.082 5.97759 149.449 6.41888C148.84 6.86017 148.277 7.39436 147.762 8.02147C147.246 8.64857 146.789 9.32212 146.391 10.0421C145.992 10.7389 145.652 11.4008 145.371 12.0279C145.113 12.6551 144.902 13.1776 144.738 13.5957C144.598 14.0138 144.527 14.2344 144.527 14.2576C144.504 14.304 144.469 14.1298 144.422 13.735C144.398 13.3402 144.363 12.8525 144.316 12.2718C144.293 11.668 144.258 11.0409 144.211 10.3905C144.164 9.74018 144.117 9.19437 144.07 8.75308C144.047 8.40469 144.012 7.95178 143.965 7.39436C143.895 6.48856 143.754 5.06016 143.543 3.10918ZM164.363 6.07049C165.184 5.815 165.852 5.60597 166.367 5.44339C166.883 5.25758 167.305 5.10662 167.633 4.99048C168.008 4.85113 168.289 4.72339 168.477 4.60726L169.32 4.18919C169.648 4.02662 170.07 3.81758 170.586 3.5621C171.102 3.28338 171.77 2.93499 172.59 2.51693C172.402 3.39951 172.262 4.23564 172.168 5.02533C172.098 5.79178 172.039 6.47694 171.992 7.08082C171.922 7.77759 171.887 8.4163 171.887 8.99695C171.863 9.4847 171.828 10.135 171.781 10.9479C171.758 11.7608 171.723 12.6434 171.676 13.5957C171.629 14.5479 171.582 15.5234 171.535 16.5221C171.488 17.5208 171.453 18.4615 171.43 19.3441C171.43 20.2034 171.441 20.9466 171.465 21.5738C171.512 22.2009 171.594 22.6306 171.711 22.8628C171.828 23.1415 171.98 23.4086 172.168 23.6641C172.332 23.8964 172.52 24.1634 172.73 24.4654C172.965 24.7441 173.246 25.0228 173.574 25.3015C173.035 25.4177 172.531 25.5221 172.062 25.6151C171.594 25.6848 171.184 25.7428 170.832 25.7893C170.41 25.859 170.035 25.917 169.707 25.9634C169.355 25.9867 168.875 26.0448 168.266 26.1376C167.75 26.2073 167.094 26.3002 166.297 26.4164C165.5 26.5092 164.516 26.6138 163.344 26.7299C163.953 26.3583 164.434 25.9983 164.785 25.6499C165.16 25.3015 165.441 24.9996 165.629 24.7441C165.84 24.4422 165.969 24.1518 166.016 23.8732C166.039 23.6874 166.074 23.188 166.121 22.375C166.191 21.5389 166.25 20.5634 166.297 19.4486C166.367 18.3105 166.426 17.1027 166.473 15.8254C166.543 14.5247 166.59 13.3169 166.613 12.2021C166.637 11.0873 166.648 10.135 166.648 9.34534C166.648 8.55566 166.613 8.07953 166.543 7.91695C166.449 7.75436 166.309 7.56856 166.121 7.35953C165.957 7.17372 165.734 6.9763 165.453 6.76727C165.195 6.55823 164.832 6.32598 164.363 6.07049Z" fill="#394BA7"/>
</g>
</svg>
