<svg width="80" height="27" viewBox="0 0 80 27" fill="none" xmlns="http://www.w3.org/2000/svg">
<g id="hiflix 2">
<path id="Vector" d="M4.26399 2.60113C4.26399 3.2195 4.25199 3.94489 4.22799 4.7773C4.20399 5.58593 4.17999 6.2043 4.15599 6.6324C4.08399 7.84535 4.04799 9.0583 4.04799 10.2712C4.04799 11.175 4.08399 12.1144 4.15599 13.0896C4.89999 12.0193 5.70399 11.2345 6.56799 10.735C7.43199 10.2356 8.47599 9.98584 9.69999 9.98584C10.588 9.98584 11.416 10.3783 12.184 11.1631C12.952 11.948 13.444 12.8636 13.66 13.9101C13.732 14.8376 13.768 15.9673 13.768 17.2992C13.768 18.1554 13.816 19.2732 13.912 20.6526C13.96 21.1759 14.092 21.6634 14.308 22.1153C14.548 22.5672 14.884 22.7931 15.316 22.7931C15.532 22.7931 15.7 22.7813 15.82 22.7575C15.964 22.7337 16.096 22.7218 16.216 22.7218C16.552 22.7218 16.78 22.805 16.9 22.9715C17.044 23.138 17.116 23.3758 17.116 23.685C17.116 24.2558 16.828 24.6839 16.252 24.9693C15.676 25.2547 15.148 25.3974 14.668 25.3974C12.94 25.3974 11.752 24.6839 11.104 23.2569C10.744 22.4483 10.516 21.4018 10.42 20.1175C10.324 18.8094 10.276 17.2873 10.276 15.5511C10.276 13.8387 9.68799 12.9825 8.51199 12.9825C7.86399 12.9825 7.20399 13.3274 6.53199 14.0171C5.88399 14.683 5.34399 15.5749 4.91199 16.6927C4.47999 17.7868 4.26399 18.9284 4.26399 20.1175L4.29999 23.8277C4.29999 24.3509 4.09599 24.7434 3.68799 25.005C3.27999 25.2428 2.89599 25.3617 2.53599 25.3617C2.00799 25.3617 1.52799 25.2071 1.09599 24.898C0.663987 24.565 0.447987 24.1964 0.447987 23.792C0.615987 22.0083 0.699987 19.0235 0.699987 14.8376C0.699987 14.0766 0.639987 11.2582 0.519987 6.38267L0.411987 3.10058C0.411987 2.57735 0.651987 2.12547 1.13199 1.74493C1.61199 1.34062 2.15199 1.13846 2.75199 1.13846C3.27999 1.13846 3.66399 1.25738 3.90399 1.49521C4.14399 1.73304 4.26399 2.10168 4.26399 2.60113ZM21.6151 2.31573C22.4551 2.38708 23.1871 2.61302 23.8111 2.99356C24.4351 3.35031 24.7471 3.89732 24.7471 4.6346C24.7471 5.18162 24.4831 5.62161 23.9551 5.95458C23.4511 6.26376 22.8391 6.41835 22.1191 6.41835C21.4231 6.41835 20.9431 6.23997 20.6791 5.88323C20.4151 5.52648 20.2831 5.15784 20.2831 4.7773C20.2831 4.0638 20.3551 3.46922 20.4991 2.99356C20.6671 2.51789 21.0391 2.29195 21.6151 2.31573ZM24.4951 18.1197V19.1543C24.4951 20.0818 24.5191 20.9618 24.5671 21.7942C24.6391 22.6029 24.7231 23.4234 24.8191 24.2558C24.7951 24.4936 24.6151 24.7434 24.2791 25.005C23.9431 25.2428 23.6431 25.3617 23.3791 25.3617C22.9231 25.3617 22.4551 25.2785 21.9751 25.112C21.5191 24.9217 21.2431 24.6958 21.1471 24.4342C21.0031 23.6731 20.9311 22.9953 20.9311 22.4007C20.9311 20.4505 20.8711 18.2624 20.7511 15.8365C20.6551 13.696 20.6071 12.1977 20.6071 11.3415C20.6071 10.9134 20.8231 10.5448 21.2551 10.2356C21.6871 9.92638 22.1431 9.77179 22.6231 9.77179C23.3191 9.77179 23.7991 9.92638 24.0631 10.2356C24.3511 10.5448 24.4951 11.0323 24.4951 11.6982V18.1197ZM36.906 4.2065C36.186 4.2065 35.742 4.80109 35.574 5.99025C35.406 7.60751 35.322 8.83235 35.322 9.66477C35.802 9.71233 36.306 9.73612 36.834 9.73612C37.17 9.73612 37.602 9.71233 38.13 9.66477L39.066 9.62909C39.546 9.62909 39.906 9.71234 40.146 9.87882C40.386 10.0453 40.506 10.3188 40.506 10.6993C40.506 11.2226 40.326 11.6745 39.966 12.055C39.63 12.4117 39.234 12.5901 38.778 12.5901C37.05 12.5901 35.886 12.6734 35.286 12.8398C35.286 14.2906 35.358 16.3479 35.502 19.0116L35.574 20.7597L35.718 23.5423C35.766 24.232 35.694 24.7196 35.502 25.005C35.334 25.2666 34.962 25.3974 34.386 25.3974C33.33 25.3974 32.646 24.7672 32.334 23.5066C32.142 22.5791 31.986 21.2829 31.866 19.6181C31.746 17.9532 31.686 16.4668 31.686 15.1587C31.686 14.469 31.722 13.6841 31.794 12.8042C31.746 12.7804 31.614 12.7685 31.398 12.7685C31.182 12.7685 31.026 12.7804 30.93 12.8042C30.21 12.8517 29.682 12.8755 29.346 12.8755C29.13 12.8755 28.914 12.7328 28.698 12.4474C28.482 12.1382 28.374 11.7696 28.374 11.3415C28.374 11.1037 28.458 10.8896 28.626 10.6993C28.794 10.4853 28.998 10.3307 29.238 10.2356C29.598 10.0453 30.114 9.95017 30.786 9.95017L31.866 9.98584C31.866 6.60862 32.25 4.26596 33.018 2.95788C33.738 1.72115 34.926 1.10278 36.582 1.10278C37.542 1.10278 38.418 1.34062 39.21 1.81628C39.546 2.03033 39.798 2.29195 39.966 2.60113C40.158 2.91032 40.254 3.20761 40.254 3.49301C40.254 3.84975 40.11 4.2184 39.822 4.59893C39.558 4.97946 39.15 5.16973 38.598 5.16973C38.382 5.16973 38.106 5.00324 37.77 4.67028C37.65 4.55136 37.518 4.44434 37.374 4.3492C37.23 4.25407 37.074 4.2065 36.906 4.2065ZM47.5923 19.6894C47.5923 20.5932 47.7243 21.2948 47.9883 21.7942C48.2763 22.2699 48.6363 22.5077 49.0683 22.5077C49.3083 22.5077 49.5363 22.4959 49.7523 22.4721C49.9683 22.4245 50.1843 22.4007 50.4003 22.4007C50.6403 22.4007 50.8443 22.5196 51.0123 22.7575C51.2043 22.9953 51.3003 23.2569 51.3003 23.5423C51.3003 24.1131 51.0243 24.565 50.4723 24.898C49.9443 25.2071 49.2243 25.3617 48.3123 25.3617C47.6643 25.3617 47.0043 25.1715 46.3323 24.7909C45.6843 24.3866 45.1443 23.7683 44.7123 22.9358C44.2803 22.0796 44.0643 21.0213 44.0643 19.7608C44.0643 17.0495 44.1123 14.7544 44.2083 12.8755C44.3283 10.6399 44.3883 7.82156 44.3883 4.42055C44.3883 3.35031 44.4483 2.60113 44.5683 2.17303C44.7123 1.84007 44.9403 1.59034 45.2523 1.42386C45.5883 1.23359 45.9363 1.13846 46.2963 1.13846C46.6563 1.13846 46.9683 1.19792 47.2323 1.31683C47.5203 1.43575 47.7123 1.62602 47.8083 1.88763C47.9043 2.17303 47.9643 2.45843 47.9883 2.74383C48.0363 3.00545 48.0603 3.38598 48.0603 3.88543C48.0603 4.86054 48.0243 5.79998 47.9523 6.70375C47.9043 7.79778 47.8803 8.59452 47.8803 9.09397C47.6883 13.2798 47.5923 16.8116 47.5923 19.6894ZM56.0917 2.31573C56.9317 2.38708 57.6637 2.61302 58.2877 2.99356C58.9117 3.35031 59.2237 3.89732 59.2237 4.6346C59.2237 5.18162 58.9597 5.62161 58.4317 5.95458C57.9277 6.26376 57.3157 6.41835 56.5957 6.41835C55.8997 6.41835 55.4197 6.23997 55.1557 5.88323C54.8917 5.52648 54.7597 5.15784 54.7597 4.7773C54.7597 4.0638 54.8317 3.46922 54.9757 2.99356C55.1437 2.51789 55.5157 2.29195 56.0917 2.31573ZM58.9717 18.1197V19.1543C58.9717 20.0818 58.9957 20.9618 59.0437 21.7942C59.1157 22.6029 59.1997 23.4234 59.2957 24.2558C59.2957 24.5412 59.1277 24.8028 58.7917 25.0407C58.4557 25.2547 58.1437 25.3617 57.8557 25.3617C57.3997 25.3617 56.9317 25.2785 56.4517 25.112C55.9957 24.9217 55.7197 24.6958 55.6237 24.4342C55.4797 23.6731 55.4077 22.9953 55.4077 22.4007C55.4077 20.4505 55.3477 18.2624 55.2277 15.8365C55.1317 13.696 55.0837 12.1977 55.0837 11.3415C55.0837 10.9134 55.2997 10.5448 55.7317 10.2356C56.1637 9.92638 56.6197 9.77179 57.0997 9.77179C57.7957 9.77179 58.2757 9.92638 58.5397 10.2356C58.8277 10.5448 58.9717 11.0323 58.9717 11.6982V18.1197ZM76.1346 9.48639C76.6146 9.48639 76.9866 9.60531 77.2506 9.84314C77.5386 10.0572 77.6826 10.3307 77.6826 10.6637C77.6826 10.9015 77.6346 11.1512 77.5386 11.4128C77.4666 11.6507 77.3826 11.9004 77.2866 12.162C76.7346 13.4463 75.5706 15.2419 73.7946 17.5489C75.6186 19.8797 77.0946 21.378 78.2226 22.044C78.3186 22.0915 78.4986 22.1748 78.7626 22.2937C79.0266 22.4126 79.2306 22.5553 79.3746 22.7218C79.5426 22.8883 79.6266 23.0785 79.6266 23.2926C79.6266 23.8158 79.4226 24.2439 79.0146 24.5769C78.6306 24.8861 78.1626 25.0407 77.6106 25.0407C76.6746 25.0407 75.6546 24.5293 74.5506 23.5066C73.4466 22.4602 72.5106 21.3661 71.7426 20.2245C71.1906 21.057 70.5546 21.8894 69.8346 22.7218C69.1386 23.5304 68.4906 24.2201 67.8906 24.7909C67.6506 25.0526 67.3626 25.2547 67.0266 25.3974C66.7146 25.5401 66.4026 25.6115 66.0906 25.6115C65.6586 25.6115 65.2746 25.5163 64.9386 25.3261C64.6026 25.1358 64.4346 24.8028 64.4346 24.3272C64.4346 24.2082 64.5186 24.018 64.6866 23.7564C64.8546 23.471 64.9506 23.3045 64.9746 23.2569C65.2626 22.7575 65.6466 22.2461 66.1266 21.7229C66.6066 21.1759 66.9066 20.831 67.0266 20.6883C67.3146 20.3316 67.6266 19.9867 67.9626 19.6537C68.1546 19.4397 68.4426 19.1067 68.8266 18.6549C69.2106 18.203 69.4746 17.8462 69.6186 17.5846L68.3586 15.8722C67.7586 15.1825 67.2426 14.6355 66.8106 14.2312C66.3786 13.8031 66.0306 13.589 65.7666 13.589C65.3826 13.589 65.0226 13.696 64.6866 13.9101C64.3986 14.1004 64.1106 14.1955 63.8226 14.1955C63.5106 14.1955 63.2706 14.1241 63.1026 13.9814C62.9346 13.815 62.8506 13.6366 62.8506 13.4463C62.8506 12.6377 63.1746 11.948 63.8226 11.3772C64.4706 10.7826 65.2866 10.4853 66.2706 10.4853C67.2066 10.4853 68.0346 10.8064 68.7546 11.4485C69.4986 12.0669 70.2306 12.8993 70.9506 13.9458C71.0466 14.0409 71.1546 14.1955 71.2746 14.4095C71.3946 14.6236 71.5146 14.802 71.6346 14.9447C71.8986 14.5641 72.3786 13.8268 73.0746 12.7328C73.8186 11.4247 74.2626 10.6756 74.4066 10.4853C74.9106 9.81936 75.4866 9.48639 76.1346 9.48639Z" fill="#D00707"/>
</g>
</svg>
